<?xml version="1.0" encoding="utf-8"?>
<!-- Generator: Adobe Illustrator 17.1.0, SVG Export Plug-In . SVG Version: 6.00 Build 0)  -->
<!DOCTYPE svg PUBLIC "-//W3C//DTD SVG 1.1//EN" "http://www.w3.org/Graphics/SVG/1.1/DTD/svg11.dtd">
<svg version="1.1" id="Layer_1" xmlns="http://www.w3.org/2000/svg" xmlns:xlink="http://www.w3.org/1999/xlink" x="0px" y="0px"
	 viewBox="0 0 12.2 15" enable-background="new 0 0 12.2 15" xml:space="preserve">
<g>
	<circle fill="none" cx="2.1" cy="3.1" r="1.5"/>
	<circle fill="none" cx="2.1" cy="12.9" r="1.5"/>
	<path d="M3.1,11.1L3.1,11.1l0-6.3h0c0.6-0.4,1.1-1,1.1-1.8C4.1,1.9,3.2,1,2.1,1S0,1.9,0,3.1c0,0.8,0.4,1.4,1.1,1.8h0v6.3h0
		c-0.6,0.4-1.1,1-1.1,1.8C0,14.1,0.9,15,2.1,15s2.1-0.9,2.1-2.1C4.1,12.2,3.7,11.5,3.1,11.1z M0.6,3.1c0-0.8,0.7-1.5,1.5-1.5
		s1.5,0.7,1.5,1.5S2.9,4.5,2.1,4.5S0.6,3.9,0.6,3.1z M2.1,14.4c-0.8,0-1.5-0.7-1.5-1.5s0.7-1.5,1.5-1.5s1.5,0.7,1.5,1.5
		S2.9,14.4,2.1,14.4z"/>
</g>
<g>
	<circle fill="none" cx="10.1" cy="12.9" r="1.5"/>
	<path d="M11.1,11.1L11.1,11.1l0-6.3c0-1.8-0.8-2.9-2.3-2.9H7.1V0L4.3,2.7l2.8,2.8V3.9c0,0,0.7,0,1.2,0s0.8,0.4,0.8,0.9v6.3h0
		c-0.6,0.4-1.1,1-1.1,1.8c0,1.1,0.9,2.1,2.1,2.1s2.1-0.9,2.1-2.1C12.2,12.2,11.7,11.5,11.1,11.1z M10.1,14.4c-0.8,0-1.5-0.7-1.5-1.5
		s0.7-1.5,1.5-1.5s1.5,0.7,1.5,1.5S10.9,14.4,10.1,14.4z"/>
</g>
</svg>
